# xmcd CD database file
#
# Track frame offsets:
#	150
#	162682
#	208660
#
# Disc length: 4258 seconds
#
# Revision: 2
# Processed by: cddbd v1.4PL0 Copyright (c) Steve Scherf et al.
# Submitted via: CDex 1.50
#
DISCID=2710a003
DTITLE=Richard Strauss - Musically Speaking
DYEAR=1996
DGENRE=Classical
TTITLE0=Thus spake Zarathustra, op. 30
TTITLE1=Dance of the Seven Veils
TTITLE2=Four Symphonic Interludes from Intermizzo
EXTD=YEAR: 1996
EXTT0=
EXTT1=
EXTT2=
PLAYORDER=
